# xmcd
#
# Track frame offsets:
#	150
#	14260
#	27867
#	42192
#	60555
#	71945
#	84510
#	98725
#	109930
#	118822
#	133355
#	144272
#
# Disc length: 2056 seconds
#
# Revision: 0
# Processed by: cddbd v1.5.2PL0 Copyright (c) Steve Scherf et al.
# Submitted via: audiograbber 1.83.01
#
DISCID=a708060c
DTITLE=Calvin Gilmore - There Is A Fountain
DYEAR=1999
DGENRE=Southern Gospel
TTITLE0=There Is A Fountain
TTITLE1=In The Garden
TTITLE2=What A Friend We Have In Jesus
TTITLE3=Softly And Tenderly
TTITLE4=Just A Closer Walk With Thee
TTITLE5=Sweet Hour Of Prayer
TTITLE6=Peace In The Valley
TTITLE7=Let The Lower Lights Be Burning
TTITLE8=Jesus Is Calling
TTITLE9=I Surrender All
TTITLE10=In The Sweet By And By
TTITLE11=Take My Hand, Precious Lord
EXTD=
EXTT0=
EXTT1=
EXTT2=
EXTT3=
EXTT4=
EXTT5=
EXTT6=
EXTT7=
EXTT8=
EXTT9=
EXTT10=
EXTT11=
PLAYORDER=
